<?xml version="1.0"?>
<svg xmlns="http://www.w3.org/2000/svg" height="512px" viewBox="0 0 512 512" width="512px" class=""><g><path d="m512 0h-256l-128 256 128 256h256zm0 0" fill="#057aad" data-original="#057AAD" class="" style="fill:#2B2B2B" data-old_color="#057aad"/><path d="m0 0h256v512h-256zm0 0" fill="#0691ce" data-original="#0691CE" class="" style="fill:#383838" data-old_color="#0691ce"/><path d="m106 196h60v225h-60zm0 0" fill="#fff" data-original="#FFF" class="" data-old_color="#fff" style="fill:#FFFFFF"/><path d="m166 121c0 16.570312-13.429688 30-30 30s-30-13.429688-30-30 13.429688-30 30-30 30 13.429688 30 30zm0 0" fill="#fff" data-original="#FFF" class="" data-old_color="#fff" style="fill:#FFFFFF"/><path d="m308.5 196c-19.335938 0-37.34375 5.640625-52.5 15.347656l-30 30 30 59.652344c0-24.851562 20.148438-45 45-45s45 20.148438 45 45v120h60v-127.5c0-53.847656-43.652344-97.5-97.5-97.5zm0 0" fill="#d5f1fe" data-original="#D5F1FE" class="active-path" style="fill:#B3B3B3" data-old_color="#d5f1fe"/><path d="m196 196h60v225h-60zm0 0" fill="#fff" data-original="#FFF" class="" data-old_color="#fff" style="fill:#FFFFFF"/></g> </svg>
